<svg width="2824" height="1527" viewBox="0 0 2824 1527" fill="none" xmlns="http://www.w3.org/2000/svg">
<g clip-path="url(#clip0)">
<path d="M1532.5 -10L1510 40M1466.7 137L1348.2 408.5" stroke="url(#paint0_linear)" stroke-opacity="0.96" stroke-width="3"/>
<path d="M1533.7 252L1368 534" stroke="url(#paint1_linear)" stroke-opacity="0.96" stroke-width="3"/>
<path d="M1840.7 122L1638.5 342" stroke="url(#paint2_linear)" stroke-opacity="0.96" stroke-width="3"/>
<path d="M2009.5 258L1715 445" stroke="url(#paint3_linear)" stroke-opacity="0.96" stroke-width="3"/>
<path d="M2339.5 51L2139 178.5" stroke="url(#paint4_linear)" stroke-opacity="0.96" stroke-width="3"/>
<path d="M2824.2 152L1855.2 521.5" stroke="url(#paint5_linear)" stroke-opacity="0.96" stroke-width="3"/>
<path d="M2591.2 476.5L1978.2 610.5" stroke="url(#paint6_linear)" stroke-opacity="0.96" stroke-width="3"/>
<path d="M2625.7 764H1926.2" stroke="url(#paint7_linear)" stroke-opacity="0.96" stroke-width="3"/>
<path d="M384.695 764L123.195 763" stroke="url(#paint8_linear)" stroke-opacity="0.96" stroke-width="3"/>
<path d="M680.195 667.5L135.195 558" stroke="url(#paint9_linear)" stroke-opacity="0.96" stroke-width="3"/>
<path d="M618.695 538L201.606 352M841.695 624.5L728.606 577" stroke="url(#paint10_linear)" stroke-opacity="0.96" stroke-width="3"/>
<path d="M124.999 307.992L5.2085 253" stroke="url(#paint11_linear)" stroke-opacity="0.96" stroke-width="3"/>
<path d="M553.317 361L2.19519 5M900.695 582.5L758.695 492" stroke="url(#paint12_linear)" stroke-opacity="0.96" stroke-width="3"/>
<path d="M707.513 289L313.195 -103M939.195 519.5L797.195 381" stroke="url(#paint13_linear)" stroke-opacity="0.96" stroke-width="3"/>
<path d="M1025.7 11.5L1118.7 445M622.5 -91L933.695 393.5M888.195 0L912.195 57" stroke="url(#paint14_linear)" stroke-opacity="0.96" stroke-width="3"/>
<path d="M1187.7 365V488.5M1187.7 3.5V72" stroke="url(#paint15_linear)" stroke-opacity="0.96" stroke-width="3"/>
<path d="M1348.2 0L1298.7 244.5" stroke="url(#paint16_linear)" stroke-opacity="0.96" stroke-width="3"/>
</g>
<defs>
<linearGradient id="paint0_linear" x1="1532" y1="2.5" x2="1360" y2="397" gradientUnits="userSpaceOnUse">
<stop stop-color="white"/>
<stop offset="1" stop-color="white" stop-opacity="0"/>
</linearGradient>
<linearGradient id="paint1_linear" x1="1450.85" y1="252" x2="1450.85" y2="534" gradientUnits="userSpaceOnUse">
<stop stop-color="white"/>
<stop offset="1" stop-color="white" stop-opacity="0"/>
</linearGradient>
<linearGradient id="paint2_linear" x1="1739.6" y1="122" x2="1739.6" y2="342" gradientUnits="userSpaceOnUse">
<stop stop-color="white"/>
<stop offset="1" stop-color="white" stop-opacity="0"/>
</linearGradient>
<linearGradient id="paint3_linear" x1="1862.25" y1="258" x2="1862.25" y2="445" gradientUnits="userSpaceOnUse">
<stop stop-color="white"/>
<stop offset="1" stop-color="white" stop-opacity="0"/>
</linearGradient>
<linearGradient id="paint4_linear" x1="2239.25" y1="51" x2="2239.25" y2="178.5" gradientUnits="userSpaceOnUse">
<stop stop-color="white"/>
<stop offset="1" stop-color="white" stop-opacity="0"/>
</linearGradient>
<linearGradient id="paint5_linear" x1="2339.7" y1="152" x2="2339.7" y2="521.5" gradientUnits="userSpaceOnUse">
<stop stop-color="white"/>
<stop offset="1" stop-color="white" stop-opacity="0"/>
</linearGradient>
<linearGradient id="paint6_linear" x1="2284.7" y1="476.5" x2="2284.7" y2="610.5" gradientUnits="userSpaceOnUse">
<stop stop-color="white"/>
<stop offset="1" stop-color="white" stop-opacity="0"/>
</linearGradient>
<linearGradient id="paint7_linear" x1="1926" y1="764" x2="2626" y2="764" gradientUnits="userSpaceOnUse">
<stop stop-color="white" stop-opacity="0"/>
<stop offset="0.679066" stop-color="white"/>
</linearGradient>
<linearGradient id="paint8_linear" x1="113" y1="763" x2="385" y2="763" gradientUnits="userSpaceOnUse">
<stop stop-color="white"/>
<stop offset="1" stop-color="white" stop-opacity="0"/>
</linearGradient>
<linearGradient id="paint9_linear" x1="407.901" y1="559.043" x2="407.49" y2="666.457" gradientUnits="userSpaceOnUse">
<stop stop-color="white"/>
<stop offset="1" stop-color="white" stop-opacity="0"/>
</linearGradient>
<linearGradient id="paint10_linear" x1="522.167" y1="353.226" x2="521.134" y2="623.274" gradientUnits="userSpaceOnUse">
<stop stop-color="white"/>
<stop offset="1" stop-color="white" stop-opacity="0"/>
</linearGradient>
<linearGradient id="paint11_linear" x1="5" y1="253" x2="125" y2="308" gradientUnits="userSpaceOnUse">
<stop stop-color="white"/>
<stop offset="1" stop-color="white" stop-opacity="0"/>
</linearGradient>
<linearGradient id="paint12_linear" x1="452.543" y1="6.72217" x2="450.348" y2="580.778" gradientUnits="userSpaceOnUse">
<stop stop-color="white"/>
<stop offset="1" stop-color="white" stop-opacity="0"/>
</linearGradient>
<linearGradient id="paint13_linear" x1="627.381" y1="-101.799" x2="625.01" y2="518.299" gradientUnits="userSpaceOnUse">
<stop stop-color="white"/>
<stop offset="1" stop-color="white" stop-opacity="0"/>
</linearGradient>
<linearGradient id="paint14_linear" x1="947.695" y1="8.80837e-06" x2="947.695" y2="445" gradientUnits="userSpaceOnUse">
<stop stop-color="white"/>
<stop offset="1" stop-color="white" stop-opacity="0"/>
</linearGradient>
<linearGradient id="paint15_linear" x1="1188.2" y1="3.5" x2="1188.2" y2="488.5" gradientUnits="userSpaceOnUse">
<stop stop-color="white"/>
<stop offset="1" stop-color="white" stop-opacity="0"/>
</linearGradient>
<linearGradient id="paint16_linear" x1="1323.45" y1="0" x2="1323.45" y2="244.5" gradientUnits="userSpaceOnUse">
<stop stop-color="white"/>
<stop offset="1" stop-color="white" stop-opacity="0"/>
</linearGradient>
<clipPath id="clip0">
<rect width="2824" height="1527" fill="white"/>
</clipPath>
</defs>
</svg>
